<svg width="9" height="9" viewBox="0 0 9 9" fill="none" xmlns="http://www.w3.org/2000/svg">
<path d="M0.179346 0.17837C0.417173 -0.0594566 0.802848 -0.0594566 1.04067 0.17837L4.50454 3.64224L7.96841 0.179346C8.20621 -0.0584548 8.5919 -0.0584042 8.82974 0.179346C9.06756 0.417173 9.06756 0.802848 8.82974 1.04067L5.36587 4.50357L8.82974 7.96743C9.06738 8.20527 9.0675 8.59099 8.82974 8.82876C8.71014 8.94826 8.55379 9.00747 8.39907 9.00747C8.24295 9.00747 8.088 8.94826 7.96841 8.82876L4.50454 5.36392L1.0397 8.82876C0.92158 8.94829 0.765118 9.00738 0.609034 9.00747C0.452983 9.00747 0.297938 8.94814 0.17837 8.82876C-0.0594566 8.59093 -0.0594566 8.20526 0.17837 7.96743L3.64321 4.50259L0.179346 1.03872C-0.0582214 0.800934 -0.0582461 0.416142 0.179346 0.17837Z" fill="#0D0D0D"/>
</svg>
